<?xml version="1.0" encoding="UTF-8"?>
<svg version="1.1" xmlns="http://www.w3.org/2000/svg" width="1920" height="1080">
<path d="M0 0 C3.125 1.25 3.125 1.25 6 3 C6.87624023 3.4758252 7.75248047 3.95165039 8.65527344 4.44189453 C12.33156496 8.45274236 11.5574874 12.43783643 11.390625 17.6796875 C11.37784361 19.82681685 11.36615891 21.97395297 11.35546875 24.12109375 C11.30977238 27.501151 11.24988227 30.87988632 11.16845703 34.25927734 C11.09935284 37.52528445 11.08560009 40.78804001 11.078125 44.0546875 C11.03786194 45.06111298 10.99759888 46.06753845 10.95611572 47.10446167 C10.96589701 49.99876834 11.07424476 52.25455666 12 55 C14.6955042 57.66889997 17.63297844 59.30386001 21 61 C22.485 61.99 22.485 61.99 24 63 C24 63.66 24 64.32 24 65 C24.66 65 25.32 65 26 65 C26.02312792 72.80575195 26.04091738 80.61149595 26.05181217 88.41727352 C26.05704002 92.0414596 26.06413587 95.6656223 26.07543945 99.28979492 C26.08627184 102.78459975 26.09227758 106.27938204 26.09487724 109.77420235 C26.09763551 111.76239389 26.10544688 113.75057631 26.11329651 115.73875427 C26.11337204 116.93992386 26.11344757 118.14109344 26.11352539 119.37866211 C26.115746 120.44233505 26.11796661 121.506008 26.12025452 122.60191345 C26 125 26 125 25 126 C24.88035613 128.45833926 24.82457818 130.88987652 24.81054688 133.34960938 C24.80225357 134.11868118 24.79396027 134.88775299 24.78541565 135.68013 C24.76797779 137.35527964 24.7528213 139.03045417 24.73963928 140.7056427 C24.71868109 143.35245269 24.69165359 145.99913731 24.66296387 148.64587402 C24.60316321 154.26386835 24.55104846 159.88192022 24.5 165.5 C24.44087181 172.00728581 24.37865626 178.51450971 24.30812073 185.02168274 C24.28144681 187.63695308 24.26069222 190.25222931 24.2401123 192.86755371 C24.22351626 194.46183573 24.20664504 196.05611492 24.18945312 197.65039062 C24.18526871 198.38393265 24.18108429 199.11747467 24.17677307 199.87324524 C24.11384346 204.88615654 24.11384346 204.88615654 23 206 C22.62819644 207.97230168 22.30199332 209.95330952 22 211.9375 C21.10806175 217.7838765 21.10806175 217.7838765 20 220 C19.71862252 222.21253297 19.48768493 224.43156459 19.28125 226.65234375 C19.18704773 227.6362484 19.18704773 227.6362484 19.09094238 228.64002991 C18.89017996 230.73884878 18.69454491 232.83809626 18.5 234.9375 C18.30529758 237.03331529 18.10938381 239.12897278 17.90905762 241.22425842 C17.72702654 243.12827259 17.54991921 245.03275555 17.37304688 246.93725586 C17 250 17 250 16 253 C15.86173297 254.95569444 15.77505139 256.9152325 15.71875 258.875 C15.68136719 260.02484375 15.64398437 261.1746875 15.60546875 262.359375 C15.57066406 263.56078125 15.53585937 264.7621875 15.5 266 C15.4311928 268.37512261 15.35845971 270.75013569 15.28125 273.125 C15.25095703 274.17945313 15.22066406 275.23390625 15.18945312 276.3203125 C15 279 15 279 14 282 C13.8617438 283.94396055 13.77505483 285.89178647 13.71875 287.83984375 C13.68136719 288.98517578 13.64398437 290.13050781 13.60546875 291.31054688 C13.57066406 292.50744141 13.53585937 293.70433594 13.5 294.9375 C13.43105153 297.30090035 13.35829481 299.66419348 13.28125 302.02734375 C13.25095703 303.07656006 13.22066406 304.12577637 13.18945312 305.20678711 C13 308 13 308 12.49072266 310 C11.83152387 312.686645 11.87015945 315.20810324 11.8671875 317.97265625 C11.86589844 319.11927734 11.86460937 320.26589844 11.86328125 321.44726562 C11.86908203 323.23680664 11.86908203 323.23680664 11.875 325.0625 C11.87113281 326.25939453 11.86726562 327.45628906 11.86328125 328.68945312 C11.86521484 330.40745117 11.86521484 330.40745117 11.8671875 332.16015625 C11.86887939 333.73228882 11.86887939 333.73228882 11.87060547 335.33618164 C11.88500995 338.10474232 11.88500995 338.10474232 13 341 C13.66 341 14.32 341 15 341 C20.6590046 347.72006797 21.67860017 356.44963782 21 365 C19.53867377 370.94539576 17.71384333 376.94628073 12.6875 380.75 C9.76834983 382.10774426 7.18687363 382.6294333 4 383 C4 383.66 4 384.32 4 385 C3.34 385 2.68 385 2 385 C2 385.66 2 386.32 2 387 C1.34 387 0.68 387 0 387 C-0.12375 387.70125 -0.2475 388.4025 -0.375 389.125 C-1.69938676 395.21717907 -3.05004953 398.95004052 -8 403 C-12.29116496 405.00863041 -15.4763594 405.57344021 -20 404 C-23.67437324 399.90569839 -24.8713073 395.50512466 -26.09375 390.26953125 C-27.23630355 387.40822258 -28.3548889 386.54452292 -31 385 C-33.57032557 384.01310803 -33.57032557 384.01310803 -36.25 383.3125 C-37.14203125 383.06113281 -38.0340625 382.80976562 -38.953125 382.55078125 C-39.62859375 382.36902344 -40.3040625 382.18726563 -41 382 C-41 381.34 -41 380.68 -41 380 C-41.66 380 -42.32 380 -43 380 C-46.9420835 374.23548503 -47.62441924 369.97295214 -47.5 363.0625 C-47.51546875 362.20720703 -47.5309375 361.35191406 -47.546875 360.47070312 C-47.50915027 354.28856219 -46.11463195 350.33318924 -43 345 C-42.34 345 -41.68 345 -41 345 C-41 344.01 -41 343.02 -41 342 C-40.34 342 -39.68 342 -39 342 C-36.9531608 337.79021405 -36.72286587 334.027186 -36.76953125 329.43359375 C-36.76953629 328.67149094 -36.76954132 327.90938812 -36.76954651 327.12419128 C-36.77310266 324.56180309 -36.79223648 321.99980719 -36.8125 319.4375 C-36.82079894 317.60921368 -36.82876496 315.78092582 -36.83642578 313.95263672 C-36.8697047 307.6348549 -36.93376849 301.31750934 -37 295 C-37.01202454 293.77955994 -37.02404907 292.55911987 -37.03643799 291.30169678 C-37.11534314 283.39368899 -37.20958883 275.48601726 -37.32040405 267.57839966 C-37.35639744 264.97204799 -37.39000194 262.36566208 -37.42105103 259.75924683 C-37.56985257 247.74306256 -37.7350024 235.74527713 -38.8515625 223.7734375 C-38.91926849 223.00472321 -38.98697449 222.23600891 -39.05673218 221.44400024 C-39.47397123 217.54045856 -40.23770138 214.0852803 -41.55126953 210.38061523 C-42.91129864 206.53650591 -43.3630301 203.246794 -43.328125 199.13671875 C-43.32039062 197.31237305 -43.32039062 197.31237305 -43.3125 195.45117188 C-43.291875 194.20916016 -43.27125 192.96714844 -43.25 191.6875 C-43.24226562 189.79547852 -43.24226562 189.79547852 -43.234375 187.86523438 C-43.15504911 178.5593162 -43.15504911 178.5593162 -42 174 C-41.86470417 171.97370091 -41.77611361 169.94406309 -41.71875 167.9140625 C-41.68136719 166.73585938 -41.64398437 165.55765625 -41.60546875 164.34375 C-41.57066406 163.1165625 -41.53585937 161.889375 -41.5 160.625 C-41.43079928 158.20041193 -41.35800378 155.77592323 -41.28125 153.3515625 C-41.25095703 152.27729004 -41.22066406 151.20301758 -41.18945312 150.09619141 C-41.00010631 147.00173739 -40.52318958 144.05330167 -40 141 C-39.87513283 139.32233873 -39.78063734 137.64210053 -39.71875 135.9609375 C-39.68136719 135.05085937 -39.64398437 134.14078125 -39.60546875 133.203125 C-39.5348653 131.30990666 -39.46455519 129.41667736 -39.39453125 127.5234375 C-39.35714844 126.6159375 -39.31976562 125.7084375 -39.28125 124.7734375 C-39.23581055 123.54246338 -39.23581055 123.54246338 -39.18945312 122.28662109 C-39 120 -39 120 -38.48632812 118.06274414 C-37.85907486 115.40227083 -37.90636834 112.9555407 -37.9375 110.22265625 C-37.94620117 109.07893555 -37.95490234 107.93521484 -37.96386719 106.75683594 C-37.97579102 105.53770508 -37.98771484 104.31857422 -38 103.0625 C-38.02999269 94.12237082 -38.05072594 85.18597339 -37.75 76.25 C-37.73582031 75.42508057 -37.72164062 74.60016113 -37.70703125 73.75024414 C-37.47602645 68.16859059 -36.33462368 63.57194106 -33 59 C-30.23828125 56.94140625 -30.23828125 56.94140625 -27.3125 55.5625 C-26.33925781 55.08941406 -25.36601563 54.61632812 -24.36328125 54.12890625 C-23.58339844 53.75636719 -22.80351563 53.38382812 -22 53 C-18.93488048 49.93488048 -20.00275269 41.24013344 -19.95654297 37.20898438 C-19.95825176 35.86327949 -19.96104336 34.5175756 -19.96484375 33.171875 C-19.95709613 31.07551048 -19.94716232 28.97916545 -19.93676758 26.8828125 C-19.93725834 25.45371681 -19.95040708 24.02457275 -19.97583008 22.59570312 C-20.16440552 10.68967363 -20.16440552 10.68967363 -17.29736328 6.52929688 C-15.27216761 4.71305369 -13.37348198 3.32077 -11 2 C-10.32316162 1.62198242 -9.64632324 1.24396484 -8.94897461 0.85449219 C-5.86756911 -0.49649356 -3.32107333 -0.28629942 0 0 Z " fill="#040303" transform="translate(944,343)"/>
<path d="M0 0 C0.33 0 0.66 0 1 0 C0.88510998 4.70862276 0.75920087 9.41689134 0.625 14.125 C0.6045462 14.84361206 0.58409241 15.56222412 0.5630188 16.3026123 C0.25933741 26.64410199 -0.29122963 36.93178236 -1.0625 47.25 C-1.77916737 57.2109525 -2.23716002 67.137452 -2.3125 77.125 C-2.32998291 78.24422852 -2.34746582 79.36345703 -2.36547852 80.51660156 C-2.36099391 87.13189935 -1.43192867 92.83099044 0.32983398 99.19677734 C1.30047747 103.25686061 1.33438839 107.09946138 1.1875 111.25 C1.17396484 112.00667969 1.16042969 112.76335937 1.14648438 113.54296875 C1.11193999 115.36230648 1.05818229 117.18126475 1 119 C0.67 119 0.34 119 0 119 C-0.04487549 118.44127197 -0.08975098 117.88254395 -0.13598633 117.30688477 C-0.35002212 114.72432835 -0.58116977 112.14356254 -0.8125 109.5625 C-0.88275391 108.68400391 -0.95300781 107.80550781 -1.02539062 106.90039062 C-1.42418142 102.57749836 -1.96978063 98.78551883 -3.55859375 94.734375 C-5.7973687 88.54570754 -5.35791054 82.18573776 -5.25 75.6875 C-5.24484375 74.42615234 -5.2396875 73.16480469 -5.234375 71.86523438 C-5.15504911 62.5593162 -5.15504911 62.5593162 -4 58 C-3.86470417 55.97370091 -3.77611361 53.94406309 -3.71875 51.9140625 C-3.68136719 50.73585938 -3.64398437 49.55765625 -3.60546875 48.34375 C-3.57066406 47.1165625 -3.53585937 45.889375 -3.5 44.625 C-3.43079928 42.20041193 -3.35800378 39.77592323 -3.28125 37.3515625 C-3.25095703 36.27729004 -3.22066406 35.20301758 -3.18945312 34.09619141 C-3.00010631 31.00173739 -2.52318958 28.05330167 -2 25 C-1.87513283 23.32233873 -1.78063734 21.64210053 -1.71875 19.9609375 C-1.66267578 18.59582031 -1.66267578 18.59582031 -1.60546875 17.203125 C-1.5348653 15.30990666 -1.46455519 13.41667736 -1.39453125 11.5234375 C-1.33845703 10.1621875 -1.33845703 10.1621875 -1.28125 8.7734375 C-1.25095703 7.95278809 -1.22066406 7.13213867 -1.18945312 6.28662109 C-1.00733998 4.0885905 -0.60050186 2.11816698 0 0 Z " fill="#ACA095" transform="translate(906,459)"/>
<path d="M0 0 C0.33 0 0.66 0 1 0 C1.55283568 26.45123186 2.09731211 52.90559793 2.17724609 79.36322021 C2.18407709 81.36962313 2.19432609 83.37601735 2.20800781 85.38238525 C2.22563235 88.15865612 2.23016244 90.93461793 2.23046875 93.7109375 C2.23761398 94.5291095 2.24475922 95.34728149 2.25212097 96.19024658 C2.22928746 101.77071254 2.22928746 101.77071254 0 104 C0 104.99 0 105.98 0 107 C-3 109.1875 -3 109.1875 -6 111 C-6 110.01 -6 109.02 -6 108 C-5.34 108 -4.68 108 -4 108 C-4 107.01 -4 106.02 -4 105 C-3.34 105 -2.68 105 -2 105 C0.52093125 100.16482687 0.2686909 95.56355084 0.22705078 90.25268555 C0.22734283 89.27659836 0.22763489 88.30051117 0.22793579 87.29484558 C0.22654482 84.07537888 0.21099438 80.85614492 0.1953125 77.63671875 C0.19158155 75.4018415 0.18873496 73.1669626 0.18673706 70.93208313 C0.1791071 65.0548347 0.15946398 59.17768539 0.1373291 53.30047607 C0.11685701 47.30124248 0.10773242 41.30199284 0.09765625 35.30273438 C0.07621757 23.53511274 0.04208922 11.76756462 0 0 Z " fill="#ABA098" transform="translate(907,580)"/>
<path d="M0 0 C1 2 1 2 0 5.8125 C-1.64686788 12.73606701 -1.7639507 21.2246815 1.5625 27.6875 C2.036875 28.450625 2.51125 29.21375 3 30 C3 30.66 3 31.32 3 32 C2.34 32 1.68 32 1 32 C-3.00466722 26.17935497 -3.59737881 21.85809375 -3.4375 14.875 C-3.44458984 13.99457031 -3.45167969 13.11414063 -3.45898438 12.20703125 C-3.41103837 7.31653865 -3.12757073 3.9986448 0 0 Z " fill="#ABA095" transform="translate(900,691)"/>
<path d="M0 0 C0.33 0 0.66 0 1 0 C1.05785647 3.95827235 1.09354717 7.9164367 1.125 11.875 C1.14175781 13.00292969 1.15851562 14.13085938 1.17578125 15.29296875 C1.18222656 16.36933594 1.18867187 17.44570313 1.1953125 18.5546875 C1.20578613 19.54968262 1.21625977 20.54467773 1.22705078 21.56982422 C1 24 1 24 -1 26 C-1 26.99 -1 27.98 -1 29 C-4 31.1875 -4 31.1875 -7 33 C-7 32.01 -7 31.02 -7 30 C-6.34 30 -5.68 30 -5 30 C-5 29.01 -5 28.02 -5 27 C-4.34 27 -3.68 27 -3 27 C-1.40901514 23.45796529 -0.72185436 20.57284927 -0.5859375 16.69921875 C-0.54726563 15.72275391 -0.50859375 14.74628906 -0.46875 13.74023438 C-0.42234375 12.22913086 -0.42234375 12.22913086 -0.375 10.6875 C-0.31699219 9.14739258 -0.31699219 9.14739258 -0.2578125 7.57617188 C-0.16385103 5.05095735 -0.0781846 2.52574408 0 0 Z " fill="#AAA09B" transform="translate(908,658)"/>
<path d="M0 0 C9.16891892 0.62162162 9.16891892 0.62162162 13 5 C16.4939577 12.51812689 16.4939577 12.51812689 15 17 C13.38749286 13.92157728 12.04902313 11.20834831 11.25 7.8125 C10.19603132 4.64524483 10.19603132 4.64524483 6.5625 3.25 C5.386875 2.8375 4.21125 2.425 3 2 C2.01 1.34 1.02 0.68 0 0 Z " fill="#ABA196" transform="translate(906,725)"/>
<path d="M0 0 C1.65 0 3.3 0 5 0 C0.25 4.875 0.25 4.875 -2 6 C-2 5.01 -2 4.02 -2 3 C-1.34 3 -0.68 3 0 3 C0 2.01 0 1.02 0 0 Z " fill="#5E5651" transform="translate(903,685)"/>
</svg>
