<?xml version="1.0" standalone="no"?>
<!DOCTYPE svg PUBLIC "-//W3C//DTD SVG 20010904//EN"
 "http://www.w3.org/TR/2001/REC-SVG-20010904/DTD/svg10.dtd">
<svg version="1.0" xmlns="http://www.w3.org/2000/svg"
 width="300.000000pt" height="400.000000pt" viewBox="0 0 300.000000 400.000000"
 preserveAspectRatio="xMidYMid meet">
<metadata>
Created by potrace 1.10, written by Peter Selinger 2001-2011
</metadata>
<g transform="translate(0.000000,400.000000) scale(0.100000,-0.100000)"
fill="#000000" stroke="none">
<path d="M1454 3519 c-335 -39 -604 -277 -705 -624 -31 -106 -34 -343 -6 -445
44 -155 137 -313 254 -427 40 -39 73 -78 73 -85 0 -29 -61 -108 -113 -146 -91
-68 -231 -304 -401 -677 -38 -82 -123 -267 -188 -410 -141 -307 -188 -417
-188 -443 0 -48 89 -111 157 -112 19 0 43 10 62 26 26 22 121 170 226 354 18
30 111 186 207 345 191 316 209 348 299 552 52 116 63 151 69 219 8 78 39 172
64 193 9 7 39 5 97 -5 116 -22 325 -15 429 16 173 50 310 136 415 259 84 99
127 174 165 288 31 89 34 111 38 244 3 125 1 159 -17 230 -70 281 -286 512
-571 611 -53 18 -233 49 -275 47 -11 -1 -52 -5 -91 -10z m267 -54 c284 -48
553 -301 630 -592 30 -109 29 -296 0 -408 -60 -225 -211 -415 -406 -511 -199
-97 -393 -116 -653 -65 l-42 8 -29 -51 c-37 -64 -61 -148 -59 -206 1 -37 -14
-79 -80 -227 -67 -150 -136 -273 -387 -693 -169 -281 -316 -517 -328 -525 -19
-12 -28 -12 -60 -1 -21 7 -43 18 -49 24 -7 7 -18 12 -25 12 -28 0 -9 59 81
258 378 833 424 927 536 1106 74 118 100 151 126 162 38 16 91 79 128 151 l26
52 -47 38 c-136 110 -239 266 -295 443 -20 65 -23 95 -22 225 0 133 3 160 27
238 48 157 114 264 226 369 39 37 85 75 103 84 18 9 43 25 56 35 35 27 198 78
282 88 81 9 142 6 261 -14z"/>
</g>
</svg>
